<svg id="Ebene_1" data-name="Ebene 1" xmlns="http://www.w3.org/2000/svg" viewBox="0 0 48 48"><defs><style>.cls-1{fill:#ff5050;}.cls-2{fill:#fff;}</style></defs><title>stadtteilliebe-mail-signature-favicon</title><rect class="cls-1" width="48" height="48"/><rect class="cls-2" x="30" y="18" width="3" height="15"/><polygon class="cls-2" points="18 21 18 18 12 18 9 18 9 21 9 24 9 27 12 27 15 27 15 30 9 30 9 33 15 33 18 33 18 30 18 27 18 24 15 24 12 24 12 21 18 21"/><polygon class="cls-2" points="27 24 27 21 24 21 24 18 21 18 21 21 21 24 21 30 21 33 24 33 27 33 27 30 24 30 24 24 27 24"/></svg>