<?xml version="1.0" encoding="utf-8"?>
<!-- Generator: Adobe Illustrator 26.3.1, SVG Export Plug-In . SVG Version: 6.00 Build 0)  -->
<svg version="1.1" id="Layer_1" xmlns:serif="http://www.serif.com/"
	 xmlns="http://www.w3.org/2000/svg" xmlns:xlink="http://www.w3.org/1999/xlink" x="0px" y="0px" viewBox="0 0 582 582"
	 style="enable-background:new 0 0 582 582;" xml:space="preserve">
<style type="text/css">
	.st0{fill:#CDAB54;stroke:#CDAB54;stroke-width:6.358;stroke-linejoin:round;stroke-miterlimit:6.5547;}
</style>
<g id="Final" transform="matrix(1.28387,0,0,2.11457,0,0)">
	<g id="Tom-1" transform="matrix(3.2454,0,0,1.97046,-675.195,226.051)" serif:id="Tom 1">
		<g transform="matrix(0.24,0,0,0.24,-294.466,-185.122)">
			<g transform="matrix(1,-0,-0,1,2093.8,293.341)">
				<g>
					
						<image style="overflow:visible;enable-background:new    ;" width="950" height="952" id="_Image1" xlink:href="706BDCAE862F5F69.png"  transform="matrix(0.61 0 0 0.61 1.2496 0.635)">
					</image>
				</g>
			</g>
		</g>
		<g transform="matrix(1.53337,0,0,1.53337,-153.883,-427.132)">
			<g transform="matrix(0.24,0,0,0.24,-1121.2,-451.691)">
				<g transform="matrix(0.65216,-0,-0,0.65216,5655.13,2730.97)">
					<g transform="matrix(0.998943,0,0,0.999042,0,0)">
						
							<image style="overflow:visible;enable-background:new    ;" width="680" height="749" id="_Image2" xlink:href="706BDCAE862F5F6B.png"  transform="matrix(0.6094 0 0 0.6094 85.524 80.5307)">
						</image>
					</g>
				</g>
			</g>
			<g transform="matrix(0.840908,0,0,0.840908,322.124,238.652)">
				<path class="st0" d="M-46.6,54.6c0-0.2,0-0.4,0-0.6v-2.7h0c0-1.5,0-3.1,0-4.6c0-1.1,0-2.3-0.1-3.4c0-0.9,0.3-1.6,1-2.2
					c0.5-0.4,1-0.8,1.5-1.2c2.8-2.3,5.5-4.5,8.3-6.8c0.8-0.6,1.5-1.3,2.3-1.9c0.1-0.1,0.3-0.1,0.4-0.1c0,0.1,0.1,0.3,0,0.4
					c-0.4,1.6-0.9,3.2-1.3,4.8c-0.5,1.9-1,3.8-1.5,5.7c-0.4,1.7-0.9,3.4-1.3,5.1c-0.1,0.4-0.2,0.8-0.3,1.2c-0.1,0.4-0.4,0.8-0.7,1.1
					c-0.5,0.4-1,0.8-1.4,1.2c-1.7,1.4-3.5,2.8-5.2,4.2l-1.5,1.1v-1.1C-46.6,54.7-46.6,54.6-46.6,54.6 M-48.5,39.3
					c-0.7-0.6-1.4-1.3-2.2-1.9c-1.3-1.1-2.6-2.3-4-3.4c-0.1-0.1-0.1-0.1-0.2-0.2c-0.2-0.2-0.2-0.3,0.1-0.5c0.3-0.2,0.6-0.3,0.8-0.4
					c1.8-0.8,3.6-1.6,5.4-2.4c0.3-0.1,0.6-0.2,0.8-0.2c0.3,0.1,0.6,0.2,0.9,0.3c2,0.9,3.9,1.8,5.9,2.6c0.1,0,0.2,0.1,0.3,0.1
					c0.2,0.2,0.3,0.3,0,0.5c-0.4,0.3-0.7,0.6-1.1,0.9c-1.7,1.4-3.3,2.8-5,4.1c-0.2,0.2-0.5,0.4-0.8,0.6C-48,39.8-48,39.8-48.5,39.3
					 M-48.9,55.7l-1.5-1.1c-2-1.6-3.9-3.3-5.9-4.9c-0.5-0.4-0.8-0.9-1-1.5c-0.5-1.8-1-3.6-1.4-5.3c-0.5-1.9-1-3.8-1.5-5.7
					c-0.5-1.9-1-3.7-1.5-5.6c0-0.1,0-0.3,0-0.5c0.2,0.1,0.4,0.2,0.5,0.3c1.6,1.4,3.3,2.8,4.9,4.2c2.2,1.9,4.5,3.8,6.7,5.8
					c0.4,0.4,0.7,0.8,0.7,1.4c0,2.7,0,5.5,0.1,8.2c0,0.6,0,1.3,0.1,1.9V55.7z M-60.5,46c-0.3,0.2-0.5-0.1-0.6-0.2
					c-1.4-1.1-2.8-2.3-4.2-3.5c-1.5-1.2-2.9-2.4-4.4-3.6c-0.9-0.7-1.8-1.5-2.7-2.2c-0.4-0.4-0.7-0.8-0.6-1.4c0.1-1,0.2-1.9,0.3-2.9
					c0.1-0.7,0.1-1.3,0.2-2c0.1-1.2,0.2-2.4,0.3-3.6c0.1-1.4,0.3-2.9,0.4-4.3c0.1-0.7,0.1-1.5,0.2-2.2c0.1-1.3,0.3-2.5,0.4-3.8
					c0.1-0.9,0.2-1.8,0.3-2.7c0.1-0.6,0.1-1.2,0.1-1.8h0l0.1-1.3c0-0.1,0.1-0.2,0.2-0.3l0,0.1c0,0,0,0.1,0.1,0.1l1.1,3.4l0,0
					c0.5,1.6,1,3.1,1.4,4.7c0.7,2.4,1.3,4.7,2,7.1c0.8,3,1.6,5.9,2.4,8.9c0.7,2.6,1.4,5.2,2,7.7c0.3,1.1,0.6,2.2,0.8,3.3
					C-60.5,45.5-60.3,45.8-60.5,46 M-73.2,12.6c-0.1,1.4-0.2,2.7-0.3,4.1c-0.2,1.7-0.4,3.5-0.5,5.2c-0.1,1.3-0.3,2.7-0.4,4
					c-0.2,2-0.4,4-0.6,6c0,0.1-0.1,0.1-0.1,0.2c-0.3,0.1-0.4-0.1-0.4-0.4c-0.6-2.1-1.2-4.3-1.8-6.4c-0.5-1.9-1.1-3.7-1.6-5.6
					c-0.1-0.3-0.2-0.7-0.4-1c-0.3-0.6-0.2-1.1,0.1-1.6c0.7-1,1.3-2,2-2.9c0.1-0.1,0.1-0.2,0.2-0.3c0-0.1,0-0.1,0.1-0.1l3-4.6
					c0,0,0.1-0.1,0.1-0.1c0,0,0-0.1,0.1-0.1l0.1-0.2l0,0c0.1-0.2,0.2-0.4,0.4-0.7c0.1-0.2,0.2-0.3,0.5-0.3c0,0.1,0,0.3,0,0.5
					c-0.1,1-0.3,1.9-0.4,2.9C-73.1,11.7-73.1,12.2-73.2,12.6 M-79.8,14.5c-0.1,0.2-0.2,0.4-0.4,0.3c-0.1-0.1-0.2-0.2-0.3-0.4
					c-0.6-1.9-1.1-3.9-1.7-5.8c-0.6-2.1-1.2-4.2-1.8-6.3c-0.2-0.8-0.2-0.9,0.5-1.3c1.6-0.8,3.2-1.5,4.7-2.2c2.1-1,4.2-2,6.3-3
					c1.6-0.8,3.2-1.6,4.8-2.3c0.1-0.1,0.3,0,0.5-0.1c0,0.2,0,0.4-0.1,0.5c-0.4,0.8-0.9,1.6-1.4,2.3c-0.9,1.5-1.8,3-2.7,4.5
					c-1,1.7-2.1,3.5-3.1,5.2l-0.9,1.5c-0.1,0.2-0.3,0.3-0.4,0.5C-75.9,8-76,8.1-76,8.2l-2.7,4.5c-0.1,0.1-0.1,0.1-0.2,0.3
					c-0.1,0.2-0.2,0.3-0.3,0.5l-0.3,0.5l0,0C-79.5,14.1-79.7,14.3-79.8,14.5 M-82.2-2.8c0.9-1.6,1.9-3.1,2.8-4.7
					c1.1-1.8,2.2-3.7,3.3-5.5c1.8-3,3.6-6,5.4-9c0.3-0.5,0.6-1,0.9-1.5c0.4-0.5,0.5-0.6,1.1-0.4c1.7,0.7,3.4,1.4,5.1,2
					c1.8,0.7,3.5,1.4,5.3,2.1c1.5,0.6,3,1.2,4.5,1.8c0.6,0.2,1.2,0.5,1.7,0.7c0.2,0.1,0.4,0.1,0.4,0.3c0,0.2-0.2,0.3-0.4,0.4
					c-0.9,0.4-1.7,0.8-2.6,1.2c-2.5,1.2-5,2.3-7.4,3.5c-4.1,1.9-8.2,3.8-12.3,5.8c-2.5,1.2-4.9,2.3-7.4,3.5
					c-0.2,0.1-0.4,0.1-0.5,0.1c0,0-0.1-0.1-0.1-0.1C-82.2-2.6-82.2-2.7-82.2-2.8 M-33-24.2c0,0.4-0.2,0.4-0.5,0.5
					c-1.8,0.7-3.6,1.4-5.3,2.1c-1.8,0.7-3.6,1.4-5.4,2.1c-0.9,0.4-1.9,0.7-2.8,1.1c-0.6,0.2-1.3,0.2-2-0.1c-2.1-0.9-4.3-1.7-6.4-2.6
					c-2.3-0.9-4.5-1.8-6.8-2.7c-0.2-0.1-0.5-0.1-0.7-0.5H-33z M-26.6-24c0.3-0.1,0.5-0.1,0.7,0.2c0.2,0.2,0.3,0.4,0.5,0.7
					c1.6,2.7,3.2,5.4,4.9,8.1c0.6,0.9,1.1,1.9,1.7,2.8c0.1,0.1,0.1,0.1,0.1,0.2l0.6,1c0,0.1,0.1,0.1,0.1,0.2
					c0.4,0.8,0.9,1.5,1.4,2.3c1.1,1.8,2.2,3.7,3.3,5.5c0.1,0.1,0.1,0.3,0.1,0.5c-0.2-0.1-0.4-0.1-0.5-0.1c-1.2-0.5-2.4-1.1-3.6-1.7
					c-2.2-1-4.4-2-6.6-3c-1.2-0.5-2.3-1-3.5-1.6C-27.4-9-27.5-9-27.5-9l-4.9-2.3l-0.1,0c-2.3-1.1-4.6-2.1-7-3.2
					c-1.4-0.7-2.9-1.3-4.3-2c-0.2-0.1-0.5-0.2-0.5-0.5c0.2-0.1,0.5-0.2,0.7-0.3c2.2-0.9,4.4-1.7,6.6-2.6c1.3-0.5,2.6-1,3.9-1.6
					C-30.9-22.3-28.7-23.1-26.6-24 M-11.5,1c0.4,0.2,0.5,0.4,0.4,0.8c0,0.2-0.1,0.4-0.2,0.7l-0.3,0.9c0,0.1-0.1,0.2-0.1,0.4
					c-0.2,0.6-0.3,1.2-0.5,1.8c-0.5,1.7-1,3.5-1.5,5.2c-0.4,1.2-0.7,2.5-1.1,3.7c0,0.1-0.2,0.2-0.2,0.4c-0.1-0.1-0.3-0.2-0.4-0.3
					c-0.3-0.4-0.5-0.9-0.8-1.3c-1.6-2.6-3.2-5.2-4.8-7.7l0,0l-1.3-2c-0.1-0.2-0.1-0.3-0.2-0.4c-0.7-1.1-1.3-2.2-2-3.3
					c-1.2-2-2.3-3.9-3.5-5.9c-0.1-0.2-0.2-0.4-0.3-0.7c0.3,0.1,0.4,0.1,0.6,0.1c0.3,0.1,0.6,0.3,1,0.4c4.7,2.2,9.4,4.5,14.1,6.7
					C-12.3,0.7-11.9,0.8-11.5,1 M-16.1,18.9c-0.5,1.6-1,3.2-1.4,4.8c-0.5,1.7-1,3.4-1.5,5.1c-0.2,0.6-0.3,1.2-0.5,1.9
					c0,0.2-0.1,0.4-0.3,0.3c-0.1,0-0.2-0.2-0.2-0.4c-0.2-1.5-0.3-2.9-0.4-4.4c0-0.3,0-0.5-0.1-0.8c-0.2-1.6-0.3-3.3-0.5-4.9
					c-0.1-1.4-0.2-2.9-0.4-4.3c-0.1-1.3-0.3-2.6-0.4-3.9c-0.1-0.5-0.1-1-0.1-1.5c-0.1-0.6-0.1-1.2-0.2-1.7c0-0.1,0-0.2,0.1-0.5
					c0.2,0.2,0.4,0.3,0.5,0.5c1.5,2.4,3.1,4.9,4.6,7.3c0.2,0.4,0.5,0.8,0.7,1.1C-16.1,18-16,18.5-16.1,18.9 M-35,14.5
					c-0.2-0.6-0.4-1.2-0.6-1.7c-0.2-0.6-0.2-0.8,0.4-1.2c0.6-0.5,1.3-0.9,1.9-1.4c1.8-1.3,3.6-2.6,5.4-3.8c0.4-0.3,0.7-0.5,1.1-0.8
					c0.1-0.1,0.3-0.1,0.4-0.1c0,0.2,0.1,0.3,0.1,0.5c-0.3,1.1-0.6,2.2-1,3.3c-0.4,1.5-0.8,3.1-1.3,4.6c-0.4,1.4-0.8,2.9-1.2,4.3
					c-0.4,1.5-0.9,3.1-1.3,4.6c-0.1,0.4-0.2,0.9-0.4,1.3c0,0.2-0.2,0.3-0.3,0.5c-0.1-0.3-0.2-0.4-0.3-0.5C-33,20.9-34,17.7-35,14.5
					 M-46.6,26.1C-46.6,26.1-46.5,26.1-46.6,26.1c0.1-1.9,0.1-3.9,0.1-5.8c0-0.5,0.2-0.9,0.6-1.2c0.4-0.3,0.9-0.6,1.3-0.9
					c2-1.4,4-2.8,6-4.2c0.1,0,0.1-0.1,0.2-0.1c0.4-0.3,0.5-0.2,0.7,0.2c0.2,0.4,0.3,0.9,0.5,1.3c0.9,2.7,1.7,5.4,2.6,8.1
					c0.4,1.3,0.8,2.5,1.2,3.7c0.2,0.5,0,0.7-0.3,1c-0.8,0.6-1.5,1.2-2.3,1.9c-0.6,0.5-1.1,0.9-1.7,1.4c-0.4,0.4-0.8,0.4-1.3,0.2
					c-2.3-1-4.5-2.1-6.8-3.1c-0.6-0.2-0.8-0.6-0.8-1.2C-46.5,26.9-46.6,26.5-46.6,26.1 M-53.5,13.3c-0.2-0.1-0.4-0.3-0.6-0.4
					c-0.1,0-0.1-0.1-0.1-0.3c0.2,0,0.3-0.1,0.4-0.1c2.6,0,5.2,0,7.8,0.1c1.2,0,2.4,0,3.6,0c0.2,0,0.4-0.1,0.6,0
					c0.1,0,0.3,0.1,0.4,0.1c-0.1,0.1-0.1,0.3-0.2,0.4c-0.3,0.3-0.7,0.6-1.1,0.8c-1.5,1-2.9,2.1-4.4,3.1c-0.6,0.4-0.6,0.4-1.2,0
					C-50,15.8-51.7,14.6-53.5,13.3 M-68.5,5.6c1.5,1.1,3.1,2.1,4.6,3.2c0.1,0,0.1,0.1,0.2,0.1l2.1,1.5l0.1,0
					c0.6,0.4,1.2,0.8,1.7,1.2c0.1,0.1,0.2,0.1,0.2,0.2c0.3,0.2,0.4,0.5,0.3,0.9c-0.1,0.3-0.2,0.5-0.2,0.8c-0.7,2-1.4,4-2.1,6.1
					c-0.5,1.4-1,2.8-1.4,4.2c-0.1,0.2-0.1,0.4-0.4,0.4c-0.1,0-0.2-0.2-0.2-0.4c-0.4-1.5-0.8-3-1.3-4.5c-0.5-1.8-1-3.6-1.6-5.4
					c-0.2-0.8-0.5-1.6-0.7-2.4l-0.7-2.4c-0.3-1.2-0.7-2.4-1-3.6C-68.8,5.5-68.7,5.5-68.5,5.6 M-57.1,6.2c-0.1,0.4-0.3,0.8-0.4,1.2
					c-0.1,0.2-0.1,0.3-0.2,0.5L-58,8.8c-0.1,0.1-0.2,0.3-0.2,0.5c0,0,0,0.1-0.1,0.1c-0.2,0.3-0.4,0.3-0.7,0.1
					c-0.3-0.2-0.5-0.3-0.7-0.5l-1.5-1c-0.1-0.1-0.1-0.1-0.2-0.2C-62.6,7-63.8,6.1-65,5.3c-0.3-0.2-0.6-0.5-1-0.7
					c-0.1-0.1-0.3-0.2-0.2-0.4c0.1,0,0.1,0,0.2,0c1.6,0.2,3.2,0.5,4.8,0.7c1.2,0.2,2.4,0.4,3.6,0.5C-57.1,5.5-57,5.7-57.1,6.2
					 M-50.2-14.1c-0.3,1.1-0.7,2.1-1.1,3.2c-0.5,1.5-1.1,3-1.6,4.5c-0.7,2.1-1.4,4.2-2.1,6.3c-0.3,0.9-0.6,1.8-0.9,2.7
					c-0.2,0.5-0.4,0.6-0.9,0.6C-57,3.2-57.3,3.1-57.6,3c-1.2-0.2-2.4-0.4-3.7-0.6c-0.7-0.1-1.5-0.2-2.2-0.3
					c-1.1-0.2-2.2-0.3-3.2-0.5c-0.4-0.1-0.7-0.1-1.1-0.1c-0.3,0-0.5-0.1-0.7-0.2c-0.3-0.1-0.3-0.3-0.2-0.5c0.9-1.6,1.8-3.2,2.7-4.7
					c0.7-1.3,1.5-2.6,2.2-3.9c0.3-0.6,0.8-1,1.4-1.3c2.9-1.3,5.7-2.6,8.6-3.9c1-0.5,2.1-1,3.1-1.4c0.1-0.1,0.3,0,0.5-0.1
					C-50.2-14.4-50.1-14.2-50.2-14.1 M-44.1-5.8c0,0.1,0,0.1,0.1,0.2c0.7,2.3,1.5,4.5,2.2,6.8c0.2,0.6,0.4,1.2,0.6,1.8l1,3.2
					c0,0,0,0.1,0,0.1c0.2,0.7,0.5,1.5,0.7,2.2c0.1,0.3,0.2,0.7,0.3,1c0.1,0.4,0,0.6-0.5,0.7c-0.1,0-0.2,0-0.2,0
					c-5.1,0-10.2,0-15.4,0c-0.1,0-0.2,0-0.4,0c-0.4,0-0.5-0.2-0.4-0.6c0.1-0.3,0.2-0.5,0.3-0.8l1-3.1c0.1-0.3,0.2-0.7,0.3-1
					c0.5-1.5,1-3,1.5-4.4c0.5-1.4,0.9-2.8,1.4-4.1c0.2-0.5,2-5.8,2.1-6.2c0.6-1.7,1.1-3.3,1.7-5c0-0.1,0.1-0.2,0.2-0.3
					c0.4,0.1,0.4,0.4,0.5,0.6c0.7,2.1,1.3,4.2,2,6.3c0.1,0.2,0.2,0.5,0.2,0.7L-44.1-5.8z M-28.9,4.1L-30,5c-0.2,0.1-0.3,0.2-0.5,0.3
					c-1.5,1.2-3.1,2.2-4.6,3.3c-0.4,0.3-0.7,0.5-1.1,0.8c-0.3,0.2-0.4,0.1-0.6-0.1c-0.1-0.2-0.2-0.4-0.2-0.6
					c-0.3-0.9-0.6-1.8-0.8-2.6c0-0.1,0-0.1-0.1-0.2l-0.2-0.6c0.6-0.1,1.2-0.1,1.8-0.2c1-0.1,2-0.2,3-0.4c1.1-0.1,2.1-0.3,3.2-0.4
					C-29.7,4.2-29.3,4.2-28.9,4.1 M-31.9-7.8c1.5,2.5,3,5,4.5,7.6c0.2,0.4,0.5,0.7,0.7,1.1c0.2,0.3,0.1,0.4-0.2,0.5
					c-0.2,0.1-0.5,0.1-0.7,0.2c-1.4,0.2-2.8,0.4-4.1,0.6c-2.1,0.3-4.3,0.7-6.4,1c-0.2,0-0.4-0.1-0.5-0.2c-0.2-0.1-0.3-0.3-0.3-0.5
					c-0.4-1.1-0.7-2.3-1.1-3.4l-2.1-6.4l0,0c-0.1-0.2-0.1-0.4-0.2-0.6c-0.6-1.8-1.2-3.6-1.8-5.4c-0.1-0.2-0.1-0.4,0.1-0.6
					c0.2,0.1,0.4,0.1,0.6,0.2c0.6,0.3,1.1,0.5,1.7,0.8c2.7,1.2,5.3,2.4,8,3.6l1.4,0.8c0,0,0,0,0,0C-32.2-8.3-32-8.1-31.9-7.8
					 M-48.7,23.7c0,1.2,0,2.3,0,3.5c0,0.6-0.2,1-0.8,1.2c-2.3,1-4.6,2.1-6.9,3.1c-0.5,0.2-0.8,0.2-1.2-0.2c-1.3-1.1-2.5-2.2-3.8-3.2
					c-0.5-0.4-0.5-0.8-0.4-1.4c0.4-1.1,0.8-2.2,1.2-3.3c0.4-1.2,0.8-2.5,1.3-3.7c0.5-1.4,1-2.9,1.5-4.3c0.1-0.4,0.3-0.9,0.4-1.3
					c0.2-0.5,0.3-0.5,0.7-0.2c1.1,0.8,2.2,1.6,3.4,2.4c1.3,0.9,2.7,1.9,4.1,2.8c0.4,0.3,0.6,0.7,0.6,1.2
					C-48.8,21.4-48.7,22.6-48.7,23.7 M-22.8,36.2c-3.3,2.8-6.7,5.7-10,8.5c-0.4,0.4-0.9,0.8-1.3,1.2c-0.1,0.1-0.2,0.2-0.3,0.2
					c-0.1,0-0.3,0.1-0.4,0c-0.1,0-0.1-0.2,0-0.3c0.2-0.8,0.5-1.6,0.7-2.4c0.3-1.2,0.7-2.5,1-3.7c0.4-1.3,0.7-2.6,1.1-4
					c0.4-1.5,0.8-3,1.2-4.5c0.4-1.4,0.8-2.9,1.2-4.3c0.4-1.6,0.9-3.3,1.3-4.9c0.4-1.5,0.8-3,1.3-4.5c0.4-1.4,0.8-2.9,1.2-4.3
					c0.3-1.2,0.6-2.5,1-3.7c0-0.1,0.2-0.2,0.2-0.3c0.1,0.1,0.2,0.2,0.3,0.3c0,0,0,0.1,0,0.2c0.1,1.1,0.2,2.2,0.3,3.3
					c0.2,1.6,0.3,3.2,0.5,4.9c0.1,1.4,0.3,2.9,0.4,4.3c0.1,1.3,0.3,2.5,0.4,3.8c0.1,0.8,0.1,1.6,0.2,2.4c0.1,0.7,0.1,1.4,0.2,2.2
					c0.1,1.3,0.3,2.7,0.4,4C-21.9,35.3-22.2,35.8-22.8,36.2 M-22.9,39.3l0.2-0.1c0.8-0.7,1.6-1.3,2.3-2c0.2-0.2,0.5-0.4,0.7-0.6
					c0.7-0.5,1.1-1.2,1.3-2c0.2-0.9,0.5-1.8,0.7-2.6l0,0l5.3-17.9c0.4-1.5,0.8-2.9,1.3-4.4c0-0.2,0.1-0.3,0.2-0.5l1.1-3.8
					c0-0.2,0-0.3,0.1-0.5c0.2-0.4,0.3-0.9,0.4-1.4c0,0,0,0,0,0l0.4-1.4C-8.5,1.3-8.4,0.5-9-0.3c-0.4-0.6-0.8-1.3-1.2-2l0,0
					l-8.9-14.9c-0.4-0.7-0.8-1.4-1.3-2.1c-0.1-0.1-0.1-0.2-0.2-0.3l-2.4-4c-0.4-0.6-0.8-1.3-1.1-1.9c-0.5-0.9-1.1-1.2-2.1-1.2
					c-0.9,0.1-1.9,0-2.8,0v0h-39.1v-0.1c-0.5,0-1,0-1.4,0c-0.3,0-0.7,0.1-0.9,0.3c-0.1,0.1-0.1,0.1-0.2,0.1l0,0.1l-5.4,8.9
					c-0.8,1.4-1.7,2.8-2.5,4.2c-0.8,1.3-1.5,2.5-2.3,3.8c0,0,0,0.1-0.1,0.1l-1.9,3.1c0,0.1-0.1,0.2-0.1,0.3C-84-4.2-85-2.6-85.9-1
					c-0.2,0.4-0.5,0.8-0.7,1.2c-0.2,0.4-0.2,0.8-0.1,1.2c0.6,2,10.4,34.9,10.4,34.9c0.1,0,0.3,0.1,0.5,0.2c1.3,1.1,2.6,2.1,3.9,3.2
					c0.5,0.4,0.9,0.9,1.3,1.5l8.3,6.8c0.1,0,0.2,0,0.3,0.1c0.6,0.5,1.2,1,1.9,1.5c1,0.8,1.9,1.6,2.9,2.4l9.1,7.4
					c1.3-0.8,3-2.2,3.7-2.6L-22.9,39.3z"/>
			</g>
		</g>
	</g>
</g>
</svg>
